<svg xmlns="http://www.w3.org/2000/svg" viewBox="0 0 32 32" width="32" height="32">
  <!-- Background -->
  <rect width="32" height="32" fill="#1a1a2e" rx="4"/>
  
  <!-- Tetrahedral lattice structure -->
  <defs>
    <!-- Gradient for depth -->
    <linearGradient id="nodeGrad" x1="0%" y1="0%" x2="100%" y2="100%">
      <stop offset="0%" style="stop-color:#60a5fa;stop-opacity:1" />
      <stop offset="100%" style="stop-color:#3b82f6;stop-opacity:1" />
    </linearGradient>
    
    <linearGradient id="edgeGrad" x1="0%" y1="0%" x2="100%" y2="100%">
      <stop offset="0%" style="stop-color:#e5e7eb;stop-opacity:0.8" />
      <stop offset="100%" style="stop-color:#9ca3af;stop-opacity:0.6" />
    </linearGradient>
  </defs>
  
  <!-- Back layer edges (dimmer) -->
  <line x1="8" y1="12" x2="16" y2="8" stroke="url(#edgeGrad)" stroke-width="0.8" opacity="0.4"/>
  <line x1="16" y1="8" x2="24" y2="12" stroke="url(#edgeGrad)" stroke-width="0.8" opacity="0.4"/>
  <line x1="8" y1="12" x2="12" y2="20" stroke="url(#edgeGrad)" stroke-width="0.8" opacity="0.4"/>
  <line x1="24" y1="12" x2="20" y2="20" stroke="url(#edgeGrad)" stroke-width="0.8" opacity="0.4"/>
  
  <!-- Middle layer edges -->
  <line x1="12" y1="20" x2="20" y2="20" stroke="url(#edgeGrad)" stroke-width="1" opacity="0.6"/>
  <line x1="16" y1="8" x2="16" y2="16" stroke="url(#edgeGrad)" stroke-width="1" opacity="0.6"/>
  <line x1="12" y1="20" x2="16" y2="16" stroke="url(#edgeGrad)" stroke-width="1" opacity="0.6"/>
  <line x1="20" y1="20" x2="16" y2="16" stroke="url(#edgeGrad)" stroke-width="1" opacity="0.6"/>
  
  <!-- Front layer edges (brightest) -->
  <line x1="8" y1="12" x2="16" y2="16" stroke="url(#edgeGrad)" stroke-width="1.2" opacity="0.8"/>
  <line x1="24" y1="12" x2="16" y2="16" stroke="url(#edgeGrad)" stroke-width="1.2" opacity="0.8"/>
  <line x1="16" y1="24" x2="12" y2="20" stroke="url(#edgeGrad)" stroke-width="1.2" opacity="0.8"/>
  <line x1="16" y1="24" x2="20" y2="20" stroke="url(#edgeGrad)" stroke-width="1.2" opacity="0.8"/>
  <line x1="16" y1="24" x2="16" y2="16" stroke="url(#edgeGrad)" stroke-width="1.2" opacity="0.8"/>
  
  <!-- Nodes (tetrahedral vertices) -->
  <!-- Back layer nodes -->
  <circle cx="8" cy="12" r="1.5" fill="url(#nodeGrad)" opacity="0.7"/>
  <circle cx="24" cy="12" r="1.5" fill="url(#nodeGrad)" opacity="0.7"/>
  
  <!-- Middle layer nodes -->
  <circle cx="16" cy="8" r="1.8" fill="url(#nodeGrad)" opacity="0.8"/>
  <circle cx="12" cy="20" r="1.8" fill="url(#nodeGrad)" opacity="0.8"/>
  <circle cx="20" cy="20" r="1.8" fill="url(#nodeGrad)" opacity="0.8"/>
  
  <!-- Front layer nodes -->
  <circle cx="16" cy="16" r="2" fill="url(#nodeGrad)" opacity="0.9"/>
  <circle cx="16" cy="24" r="2.2" fill="url(#nodeGrad)"/>
  
  <!-- Highlight dots for extra sparkle -->
  <circle cx="16" cy="8" r="0.5" fill="#ffffff" opacity="0.8"/>
  <circle cx="16" cy="16" r="0.6" fill="#ffffff" opacity="0.9"/>
  <circle cx="16" cy="24" r="0.7" fill="#ffffff"/>
</svg>